 <svg  
 version="1.0" 
 xmlns="http://www.w3.org/2000/svg"  
 width="1500.000000pt" 
 height="1500.000000pt" 
 viewBox="0 0 1500.000000 1500.000000"  
 preserveAspectRatio="xMidYMid meet">  
 <g transform="translate(0.000000,1500.000000) scale(0.100000,-0.100000)" 
 fill="#2e2e2e" stroke="none"> 
 <path d="M2266 9408 c-3 -13 -6 -204 -6 -425 0 -337 2 -403 14 -410 8 -4 81 -6 163 -3 l148 5 3 239 c1 156 6 244 13 253 9 10 98 13 455 13 306 0 445 3 449 11 9 13 8 316 0 329 -4 6 -241 10 -619 10 l-614 0 -6 -22z"/> <path d="M6025 8966 c-97 -17 -148 -35 -235 -83 -186 -104 -302 -314 -302 -548 0 -188 58 -338 178 -460 234 -237 659 -263 934 -55 167 125 248 311 237 545 -11 245 -121 424 -331 535 -120 65 -325 92 -481 66z m288 -346 c56 -28 106 -80 139 -142 19 -36 22 -59 22 -148 1 -95 -2 -110 -26 -155 -47 -89 -109 -134 -213 -158 -62 -14 -78 -15 -137 -2 -79 16 -151 60 -191 115 -37 52 -67 142 -67 200 0 96 57 210 131 264 63 45 105 56 204 53 73 -2 99 -7 138 -27z"/> <path d="M3956 8944 c-14 -14 -16 -84 -16 -624 0 -545 2 -608 16 -614 26 -10 322 -7 329 4 3 5 7 141 8 301 2 293 6 323 36 287 17 -19 153 -209 173 -239 36 -56 43 -59 149 -59 55 0 108 4 117 9 9 5 62 72 117 150 64 91 106 141 117 141 17 0 18 -19 18 -295 l0 -295 23 -5 c12 -3 90 -4 172 -3 l150 3 3 614 c1 445 -1 618 -9 627 -13 16 -222 20 -261 5 -13 -5 -48 -44 -78 -88 -30 -43 -79 -112 -110 -154 -30 -42 -89 -124 -130 -183 -41 -59 -85 -120 -97 -134 -31 -39 -8 -65 -305 357 -117 166 -144 200 -163 205 -11 3 -70 6 -132 6 -88 0 -115 -3 -127 -16z"/> <path d="M6990 8953 c-8 -3 -18 -11 -22 -17 -4 -6 -8 -284 -8 -618 l0 -608 25 -6 c14 -3 161 -4 327 -2 274 4 310 7 382 27 279 78 425 239 466 512 20 135 -12 308 -76 411 -96 154 -218 238 -409 280 -75 16 -139 20 -380 24 -159 2 -297 1 -305 -3z m641 -345 c63 -29 112 -75 142 -132 30 -57 32 -233 3 -286 -37 -69 -69 -100 -133 -131 -55 -26 -79 -31 -171 -36 -166 -9 -152 -37 -152 305 0 217 3 291 13 301 9 10 41 12 128 9 97 -4 125 -9 170 -30z"/> <path d="M8298 8949 c-17 -9 -18 -50 -18 -623 0 -551 2 -614 16 -620 20 -8 828 -8 848 0 14 5 16 28 16 145 0 76 -1 140 -2 141 -2 1 -120 4 -263 7 l-260 6 0 90 0 90 220 5 220 5 5 130 c3 72 4 136 2 142 -3 9 -61 13 -225 15 l-222 3 -3 78 c-2 50 1 84 9 93 9 11 57 14 249 14 208 0 239 2 244 16 12 30 7 249 -6 262 -16 16 -804 17 -830 1z"/> <path d="M9307 8948 c-16 -12 -17 -51 -15 -628 l3 -615 170 0 170 0 6 175 c3 96 6 176 7 178 1 1 31 2 66 2 46 0 67 -4 77 -16 8 -9 50 -89 94 -178 l80 -161 189 -3 c104 -1 194 2 198 6 5 5 0 26 -13 48 -12 21 -39 73 -61 114 -21 41 -43 82 -48 90 -55 89 -81 144 -76 163 3 12 21 33 41 46 48 32 97 103 123 176 75 217 -11 464 -192 549 -111 52 -149 57 -486 63 -254 4 -318 2 -333 -9z m600 -302 c53 -27 76 -69 76 -141 0 -112 -49 -150 -206 -161 -81 -6 -100 -4 -122 10 -25 16 -25 18 -25 151 0 173 -3 169 140 163 69 -4 117 -11 137 -22z"/> <path d="M10501 8946 c-8 -9 -10 -182 -9 -627 l3 -614 170 0 170 0 5 302 c3 166 8 305 13 309 10 10 -5 29 251 -313 l226 -303 134 0 c95 0 136 4 143 13 5 7 8 266 8 620 -1 520 -3 610 -16 618 -16 10 -271 12 -306 3 l-23 -6 0 -287 c0 -157 -4 -292 -9 -300 -6 -9 -14 -10 -24 -5 -9 5 -107 131 -218 279 -111 149 -213 282 -227 298 -25 27 -27 27 -153 27 -95 0 -129 -3 -138 -14z"/> <path d="M2194 8467 c-2 -7 -3 -67 -2 -133 l3 -119 620 0 620 0 3 133 3 132 -621 0 c-502 0 -622 -3 -626 -13z"/> <path d="M2272 8123 c-13 -26 -15 -219 -2 -243 10 -19 20 -20 240 -20 125 0 235 -3 244 -6 14 -5 16 -36 16 -244 0 -208 -2 -239 -16 -244 -9 -3 -119 -6 -244 -6 -213 0 -230 -1 -239 -18 -12 -23 -12 -220 1 -244 8 -17 48 -18 618 -18 401 0 611 3 615 10 4 6 6 64 6 130 0 66 -2 124 -6 130 -4 6 -89 10 -229 10 -159 0 -225 3 -234 12 -17 17 -17 459 0 476 9 9 75 12 234 12 139 0 225 4 229 10 12 19 7 240 -5 256 -11 12 -102 14 -616 14 -564 0 -604 -1 -612 -17z"/> <path d="M7940 7437 c-79 -37 -57 -119 39 -148 49 -14 67 -39 51 -69 -15 -29 -56 -36 -96 -16 -19 9 -37 16 -39 16 -13 0 -3 -25 17 -41 45 -40 145 -14 163 41 9 29 -21 79 -53 85 -38 8 -75 30 -90 53 -11 17 -10 22 4 37 14 14 28 16 71 11 62 -7 75 12 20 32 -40 14 -54 14 -87 -1z"/> <path d="M5850 7421 c-14 -28 -8 -243 8 -249 8 -2 12 8 12 33 0 49 35 85 76 77 50 -9 73 -30 76 -70 2 -25 8 -37 18 -37 18 0 15 46 -6 88 -13 24 -13 30 1 49 16 23 20 75 7 94 -15 23 -53 34 -116 34 -54 0 -67 -3 -76 -19z m144 -21 c34 -13 36 -62 4 -84 -31 -22 -84 -20 -108 4 -25 25 -26 66 -2 79 22 13 73 14 106 1z"/> <path d="M6253 7423 c-12 -26 -9 -241 4 -254 14 -14 145 -7 150 8 3 8 -14 13 -54 15 -53 3 -58 5 -67 31 -14 39 2 61 48 65 45 4 48 22 2 22 -28 0 -36 5 -46 31 -19 46 -4 63 59 67 36 2 51 7 51 18 0 11 -16 14 -70 14 -56 0 -71 -3 -77 -17z"/> <path d="M7554 7427 c-2 -7 -3 -69 -2 -138 l3 -124 74 0 c51 0 76 4 79 13 2 8 -10 12 -43 12 -61 0 -85 14 -85 48 0 37 17 52 57 52 18 0 33 5 33 10 0 6 -13 10 -29 10 -35 0 -61 23 -61 54 0 34 19 46 72 46 36 0 48 4 48 15 0 20 -138 22 -146 2z"/> <path d="M8250 7425 c0 -9 9 -15 24 -15 38 0 45 -20 48 -131 2 -84 6 -104 18 -104 12 0 16 22 20 115 l5 115 33 3 c20 2 32 8 29 15 -2 8 -35 13 -90 15 -73 2 -87 0 -87 -13z"/> <path d="M9000 7425 c0 -8 9 -15 21 -15 11 0 29 -5 40 -10 17 -10 19 -22 19 -121 0 -84 3 -110 13 -107 8 3 13 37 15 113 3 116 7 125 55 125 17 0 27 5 27 15 0 12 -17 15 -95 15 -78 0 -95 -3 -95 -15z"/> <path d="M9382 7428 c-8 -8 -12 -50 -12 -134 0 -102 3 -123 16 -128 20 -8 118 -8 138 0 29 11 6 24 -42 24 -54 0 -67 6 -76 37 -11 36 10 63 49 63 47 0 54 18 8 22 -30 2 -41 9 -52 32 -20 43 -5 60 60 66 30 3 54 10 54 15 0 15 -128 18 -143 3z"/> <path d="M6660 7404 c-6 -14 -10 -29 -10 -34 0 -5 -6 -21 -14 -37 -17 -32 -42 -98 -51 -130 -9 -31 12 -30 26 1 12 25 35 36 82 36 38 0 66 -16 77 -46 5 -13 14 -24 20 -24 15 0 12 37 -6 78 -28 64 -42 96 -60 140 -20 49 -49 57 -64 16z m55 -81 c18 -42 8 -55 -35 -51 -32 4 -41 52 -13 74 27 20 31 18 48 -23z"/> <path d="M6977 7423 c-11 -10 -8 -223 3 -244 9 -16 22 -19 73 -19 64 0 106 14 77 24 -8 3 -37 7 -65 8 l-50 3 -3 118 c-2 88 -6 117 -16 117 -7 0 -16 -3 -19 -7z"/> <path d="M8679 7383 c-21 -53 -44 -103 -65 -146 -18 -37 -18 -67 1 -67 8 0 15 9 15 19 0 28 38 51 83 51 32 0 45 -6 73 -37 19 -20 37 -34 40 -30 6 6 -17 73 -60 172 -8 17 -18 42 -24 58 -17 41 -40 33 -63 -20z m55 -36 c12 -9 17 -23 14 -42 -2 -24 -9 -31 -29 -33 -37 -4 -49 16 -33 56 16 35 22 38 48 19z"/> 
 </g> 
 </svg> 